<?xml version="1.0" encoding="UTF-8"?>
<svg width="66px" height="66px" viewBox="0 0 66 66" version="1.1" xmlns="http://www.w3.org/2000/svg" xmlns:xlink="http://www.w3.org/1999/xlink">
    <!-- Generator: Sketch 40.3 (33839) - http://www.bohemiancoding.com/sketch -->
    <title>Group 7@2x</title>
    <desc>Created with Sketch.</desc>
    <defs>
        <path d="M33,66 C51.2253967,66 66,51.2253967 66,33 C66,14.7746033 51.2253967,0 33,0 C14.7746033,0 0,14.7746033 0,33 C0,51.2253967 14.7746033,66 33,66 Z" id="path-1"></path>
        <mask id="mask-2" maskContentUnits="userSpaceOnUse" maskUnits="objectBoundingBox" x="0" y="0" width="66" height="66" fill="white">
            <use xlink:href="#path-1"></use>
        </mask>
    </defs>
    <g id="Page-1" stroke="none" stroke-width="1" fill="none" fill-rule="evenodd">
        <g id="Desktop-HD-Copy-2" transform="translate(-1063.000000, -733.000000)">
            <g id="Group-7" transform="translate(1063.000000, 733.000000)">
                <use id="Oval-1-Copy-2" stroke="#000000" mask="url(#mask-2)" stroke-width="8" xlink:href="#path-1"></use>
                <g id="Group-2" transform="translate(15.000000, 15.000000)" fill="#000000">
                    <path d="M18,33.6 L18,33.6 C26.6156421,33.6 33.6,26.6156421 33.6,18 C33.6,9.3843579 26.6156421,2.4 18,2.4 C9.3843579,2.4 2.4,9.3843579 2.4,18 C2.4,26.6156421 9.3843579,33.6 18,33.6 L18,33.6 Z M18,36 L18,36 C8.0588745,36 0,27.9411255 0,18 C0,8.0588745 8.0588745,0 18,0 C27.9411255,0 36,8.0588745 36,18 C36,27.9411255 27.9411255,36 18,36 L18,36 Z" id="Oval-5"></path>
                    <path d="M11,3.70908836 C11.3283286,4.0230668 11.9207418,4.63456651 12.6889225,5.50526175 C13.975899,6.96398678 15.2639147,8.60643527 16.4648243,10.3931086 C18.0048084,12.6842456 19.2852116,15.0433975 20.2196648,17.4287075 C23.6204999,26.1097681 24.8584414,30.7228535 24.4748927,33.7019112 L26.9131332,34 C27.3662385,30.4806893 26.0681488,25.6434668 22.5154246,16.5746899 C21.5133836,14.0168538 20.1517014,11.5079447 18.5204861,9.08107676 C17.2573687,7.20185284 15.9053556,5.47779622 14.5523032,3.94417745 C14.0775462,3.40606364 13.6358057,2.92945167 13.238042,2.51887272 C12.9960386,2.26907238 12.8200994,2.0945891 12.7211871,2 L11,3.70908836 L11,3.70908836 Z" id="Path-5"></path>
                    <path d="M2.50715809,16.8595368 C6.92675903,17.1702042 11.828146,17.0008929 16.4807928,15.9938602 C23.4144364,14.4931219 28.5418498,11.3502881 31,6.11152291 L28.881354,5 C26.8088915,9.41679453 22.2971706,12.1822414 16.0065096,13.5438106 C11.5944009,14.4987805 6.8903556,14.6612749 2.66403617,14.3641939 C1.9939062,14.3170884 1.51775586,14.2704443 1.27099926,14.2403489 L1,16.724728 C1.28342909,16.7592961 1.79742035,16.8096472 2.50715809,16.8595368 Z" id="Path-6"></path>
                    <path d="M10.2072306,28.9559987 C11.1112978,27.6512952 12.251657,26.3430103 13.643996,25.1213574 C18.9539068,20.4623855 26.009783,18.3415958 35.7379137,20.1793514 L36,17.680239 C25.5200413,15.7004544 17.8999903,18.1806235 12.0398905,23.322337 C10.4920384,24.6804388 9.22315255,26.1361767 8.2119476,27.5954961 C7.59733457,28.4824742 7.20017124,29.1850757 7,29.6113936 L9.34139214,32 C9.34139214,32 9.67268041,29.7274343 10.2072306,28.9559987 Z" id="Path-6"></path>
                </g>
            </g>
        </g>
    </g>
</svg>