<?xml version="1.0" encoding="UTF-8"?>
<svg width="66px" height="66px" viewBox="0 0 66 66" version="1.1" xmlns="http://www.w3.org/2000/svg" xmlns:xlink="http://www.w3.org/1999/xlink">
    <!-- Generator: Sketch 40.3 (33839) - http://www.bohemiancoding.com/sketch -->
    <title>Group 5@2x</title>
    <desc>Created with Sketch.</desc>
    <defs>
        <circle id="path-1" cx="33" cy="33" r="33"></circle>
        <mask id="mask-2" maskContentUnits="userSpaceOnUse" maskUnits="objectBoundingBox" x="0" y="0" width="66" height="66" fill="white">
            <use xlink:href="#path-1"></use>
        </mask>
    </defs>
    <g id="Page-1" stroke="none" stroke-width="1" fill="none" fill-rule="evenodd">
        <g id="Desktop-HD-Copy-2" transform="translate(-901.000000, -735.000000)">
            <g id="Group-5" transform="translate(901.000000, 735.000000)">
                <use id="Oval-1" stroke="#000000" mask="url(#mask-2)" stroke-width="8" xlink:href="#path-1"></use>
                <polygon id="Shape" fill="#000000" points="18.0680272 20.2131148 18.0680272 19.9672131 18.3265306 19.9672131 18.3265306 19.4754098 18.585034 19.4754098 18.585034 19.7213115 18.8435374 19.7213115 18.8435374 19.9672131 19.1020408 19.9672131 19.1020408 20.2131148 19.3605442 20.2131148 19.3605442 20.4590164 19.6190476 20.4590164 19.6190476 20.704918 19.877551 20.704918 19.877551 20.9508197 20.1360544 20.9508197 20.1360544 21.1967213 20.3945578 21.1967213 20.3945578 21.442623 20.6530612 21.442623 20.6530612 21.6885246 20.9115646 21.6885246 20.9115646 21.9344262 21.170068 21.9344262 21.170068 22.1803279 21.4285714 22.1803279 21.4285714 22.4262295 21.6870748 22.4262295 21.6870748 22.6721311 22.2040816 22.6721311 22.2040816 22.9180328 22.462585 22.9180328 22.462585 23.1639344 22.7210884 23.1639344 22.7210884 23.4098361 23.2380952 23.4098361 23.2380952 23.6557377 23.4965986 23.6557377 23.4965986 23.9016393 24.0136054 23.9016393 24.0136054 24.147541 24.2721088 24.147541 24.2721088 24.3934426 24.7891156 24.3934426 24.7891156 24.6393443 25.3061224 24.6393443 25.3061224 24.8852459 25.8231293 24.8852459 25.8231293 25.1311475 26.3401361 25.1311475 26.3401361 25.3770492 26.8571429 25.3770492 26.8571429 25.6229508 27.3741497 25.6229508 27.3741497 25.8688525 28.1496599 25.8688525 28.1496599 26.1147541 28.9251701 26.1147541 28.9251701 26.3606557 29.7006803 26.3606557 29.7006803 26.6065574 30.7346939 26.6065574 30.7346939 26.852459 31.7687075 26.852459 31.7687075 27.0983607 33.5782313 27.0983607 33.5782313 27.3442623 34.8707483 27.3442623 34.8707483 26.6065574 34.6122449 26.6065574 34.6122449 24.3934426 34.8707483 24.3934426 34.8707483 23.4098361 35.1292517 23.4098361 35.1292517 22.6721311 35.3877551 22.6721311 35.3877551 22.1803279 35.6462585 22.1803279 35.6462585 21.6885246 35.9047619 21.6885246 35.9047619 21.1967213 36.1632653 21.1967213 36.1632653 20.9508197 36.4217687 20.9508197 36.4217687 20.704918 36.6802721 20.704918 36.6802721 20.4590164 36.9387755 20.4590164 36.9387755 20.2131148 37.1972789 20.2131148 37.1972789 19.9672131 37.4557823 19.9672131 37.4557823 19.7213115 37.7142857 19.7213115 37.7142857 19.4754098 37.9727891 19.4754098 37.9727891 19.2295082 38.4897959 19.2295082 38.4897959 18.9836066 39.0068027 18.9836066 39.0068027 18.7377049 39.5238095 18.7377049 39.5238095 18.4918033 40.2993197 18.4918033 40.2993197 18.2459016 41.3333333 18.2459016 41.3333333 18 43.9183673 18 43.9183673 18.2459016 44.952381 18.2459016 44.952381 18.4918033 45.7278912 18.4918033 45.7278912 18.7377049 46.244898 18.7377049 46.244898 18.9836066 46.7619048 18.9836066 46.7619048 19.2295082 47.0204082 19.2295082 47.0204082 19.4754098 47.537415 19.4754098 47.537415 19.7213115 47.7959184 19.7213115 47.7959184 19.9672131 48.0544218 19.9672131 48.0544218 20.2131148 48.3129252 20.2131148 48.3129252 20.4590164 48.5714286 20.4590164 48.5714286 20.2131148 49.6054422 20.2131148 49.6054422 19.9672131 50.3809524 19.9672131 50.3809524 19.7213115 51.1564626 19.7213115 51.1564626 19.4754098 51.9319728 19.4754098 51.9319728 19.2295082 52.4489796 19.2295082 52.4489796 18.9836066 52.9659864 18.9836066 52.9659864 18.7377049 53.2244898 18.7377049 53.2244898 19.4754098 52.9659864 19.4754098 52.9659864 19.9672131 52.707483 19.9672131 52.707483 20.2131148 52.4489796 20.2131148 52.4489796 20.704918 52.1904762 20.704918 52.1904762 20.9508197 51.9319728 20.9508197 51.9319728 21.1967213 51.6734694 21.1967213 51.6734694 21.442623 51.414966 21.442623 51.414966 21.6885246 51.1564626 21.6885246 51.1564626 21.9344262 50.8979592 21.9344262 50.8979592 22.1803279 50.6394558 22.1803279 50.6394558 22.4262295 50.3809524 22.4262295 50.3809524 22.6721311 51.1564626 22.6721311 51.1564626 22.4262295 52.4489796 22.4262295 52.4489796 22.1803279 53.2244898 22.1803279 53.2244898 21.9344262 54 21.9344262 54 22.4262295 53.7414966 22.4262295 53.7414966 22.6721311 53.4829932 22.6721311 53.4829932 22.9180328 53.2244898 22.9180328 53.2244898 23.1639344 52.9659864 23.1639344 52.9659864 23.6557377 52.707483 23.6557377 52.707483 23.9016393 52.4489796 23.9016393 52.4489796 24.147541 52.1904762 24.147541 52.1904762 24.3934426 51.6734694 24.3934426 51.6734694 24.6393443 51.414966 24.6393443 51.414966 24.8852459 51.1564626 24.8852459 51.1564626 25.1311475 50.8979592 25.1311475 50.8979592 25.3770492 50.6394558 25.3770492 50.6394558 27.5901639 50.3809524 27.5901639 50.3809524 29.8032787 50.122449 29.8032787 50.122449 31.0327869 49.8639456 31.0327869 49.8639456 32.2622951 49.6054422 32.2622951 49.6054422 33 49.3469388 33 49.3469388 33.7377049 49.0884354 33.7377049 49.0884354 34.2295082 48.829932 34.2295082 48.829932 34.9672131 48.5714286 34.9672131 48.5714286 35.4590164 48.3129252 35.4590164 48.3129252 35.9508197 48.0544218 35.9508197 48.0544218 36.442623 47.7959184 36.442623 47.7959184 36.9344262 47.537415 36.9344262 47.537415 37.4262295 47.2789116 37.4262295 47.2789116 37.9180328 47.0204082 37.9180328 47.0204082 38.1639344 46.7619048 38.1639344 46.7619048 38.6557377 46.5034014 38.6557377 46.5034014 38.9016393 46.244898 38.9016393 46.244898 39.3934426 45.9863946 39.3934426 45.9863946 39.6393443 45.7278912 39.6393443 45.7278912 39.8852459 45.4693878 39.8852459 45.4693878 40.3770492 45.2108844 40.3770492 45.2108844 40.6229508 44.952381 40.6229508 44.952381 40.8688525 44.6938776 40.8688525 44.6938776 41.1147541 44.4353741 41.1147541 44.4353741 41.3606557 44.1768707 41.3606557 44.1768707 41.6065574 43.9183673 41.6065574 43.9183673 41.852459 43.6598639 41.852459 43.6598639 42.0983607 43.4013605 42.0983607 43.4013605 42.3442623 43.1428571 42.3442623 43.1428571 42.5901639 42.8843537 42.5901639 42.8843537 42.8360656 42.6258503 42.8360656 42.6258503 43.0819672 42.3673469 43.0819672 42.3673469 43.3278689 42.1088435 43.3278689 42.1088435 43.5737705 41.5918367 43.5737705 41.5918367 43.8196721 41.3333333 43.8196721 41.3333333 44.0655738 41.0748299 44.0655738 41.0748299 44.3114754 40.5578231 44.3114754 40.5578231 44.557377 40.2993197 44.557377 40.2993197 44.8032787 39.7823129 44.8032787 39.7823129 45.0491803 39.2653061 45.0491803 39.2653061 45.295082 39.0068027 45.295082 39.0068027 45.5409836 38.4897959 45.5409836 38.4897959 45.7868852 37.9727891 45.7868852 37.9727891 46.0327869 37.1972789 46.0327869 37.1972789 46.2786885 36.6802721 46.2786885 36.6802721 46.5245902 36.1632653 46.5245902 36.1632653 46.7704918 35.3877551 46.7704918 35.3877551 47.0163934 34.3537415 47.0163934 34.3537415 47.2622951 33.3197279 47.2622951 33.3197279 47.5081967 32.0272109 47.5081967 32.0272109 47.7540984 29.9591837 47.7540984 29.9591837 48 26.0816327 48 26.0816327 47.7540984 24.0136054 47.7540984 24.0136054 47.5081967 22.7210884 47.5081967 22.7210884 47.2622951 21.6870748 47.2622951 21.6870748 47.0163934 20.9115646 47.0163934 20.9115646 46.7704918 20.1360544 46.7704918 20.1360544 46.5245902 19.3605442 46.5245902 19.3605442 46.2786885 18.8435374 46.2786885 18.8435374 46.0327869 18.3265306 46.0327869 18.3265306 45.7868852 17.8095238 45.7868852 17.8095238 45.5409836 17.292517 45.5409836 17.292517 45.295082 16.7755102 45.295082 16.7755102 45.0491803 16.2585034 45.0491803 16.2585034 44.8032787 16 44.8032787 16 44.557377 16.5170068 44.557377 16.5170068 44.8032787 18.585034 44.8032787 18.585034 44.557377 20.6530612 44.557377 20.6530612 44.3114754 21.6870748 44.3114754 21.6870748 44.0655738 22.462585 44.0655738 22.462585 43.8196721 23.2380952 43.8196721 23.2380952 43.5737705 24.0136054 43.5737705 24.0136054 43.3278689 24.5306122 43.3278689 24.5306122 43.0819672 25.047619 43.0819672 25.047619 42.8360656 25.5646259 42.8360656 25.5646259 42.5901639 26.0816327 42.5901639 26.0816327 42.3442623 26.3401361 42.3442623 26.3401361 42.0983607 26.8571429 42.0983607 26.8571429 41.852459 27.1156463 41.852459 27.1156463 41.6065574 27.3741497 41.6065574 27.3741497 41.3606557 25.8231293 41.3606557 25.8231293 41.1147541 25.047619 41.1147541 25.047619 40.8688525 24.2721088 40.8688525 24.2721088 40.6229508 23.755102 40.6229508 23.755102 40.3770492 23.4965986 40.3770492 23.4965986 40.1311475 22.9795918 40.1311475 22.9795918 39.8852459 22.7210884 39.8852459 22.7210884 39.6393443 22.462585 39.6393443 22.462585 39.3934426 22.2040816 39.3934426 22.2040816 39.147541 21.9455782 39.147541 21.9455782 38.9016393 21.6870748 38.9016393 21.6870748 38.6557377 21.4285714 38.6557377 21.4285714 38.4098361 21.170068 38.4098361 21.170068 37.9180328 20.9115646 37.9180328 20.9115646 37.6721311 20.6530612 37.6721311 20.6530612 37.1803279 20.3945578 37.1803279 20.3945578 36.6885246 20.1360544 36.6885246 20.1360544 36.1967213 20.9115646 36.1967213 20.9115646 36.442623 22.2040816 36.442623 22.2040816 36.1967213 23.4965986 36.1967213 23.4965986 35.9508197 22.7210884 35.9508197 22.7210884 35.704918 22.2040816 35.704918 22.2040816 35.4590164 21.6870748 35.4590164 21.6870748 35.2131148 21.170068 35.2131148 21.170068 34.9672131 20.6530612 34.9672131 20.6530612 34.7213115 20.3945578 34.7213115 20.3945578 34.4754098 20.1360544 34.4754098 20.1360544 34.2295082 19.877551 34.2295082 19.877551 33.9836066 19.6190476 33.9836066 19.6190476 33.7377049 19.3605442 33.7377049 19.3605442 33.4918033 19.1020408 33.4918033 19.1020408 33.2459016 18.8435374 33.2459016 18.8435374 33 18.585034 33 18.585034 32.5081967 18.3265306 32.5081967 18.3265306 32.0163934 18.0680272 32.0163934 18.0680272 31.5245902 17.8095238 31.5245902 17.8095238 31.0327869 17.5510204 31.0327869 17.5510204 29.8032787 17.292517 29.8032787 17.292517 28.5737705 17.5510204 28.5737705 17.5510204 28.8196721 18.0680272 28.8196721 18.0680272 29.0655738 18.8435374 29.0655738 18.8435374 29.3114754 19.877551 29.3114754 19.877551 29.557377 20.6530612 29.557377 20.6530612 29.3114754 20.3945578 29.3114754 20.3945578 29.0655738 20.1360544 29.0655738 20.1360544 28.8196721 19.877551 28.8196721 19.877551 28.5737705 19.6190476 28.5737705 19.6190476 28.3278689 19.3605442 28.3278689 19.3605442 28.0819672 19.1020408 28.0819672 19.1020408 27.8360656 18.8435374 27.8360656 18.8435374 27.3442623 18.585034 27.3442623 18.585034 27.0983607 18.3265306 27.0983607 18.3265306 26.6065574 18.0680272 26.6065574 18.0680272 26.1147541 17.8095238 26.1147541 17.8095238 25.3770492 17.5510204 25.3770492 17.5510204 23.6557377 17.292517 23.6557377 17.292517 22.6721311 17.5510204 22.6721311 17.5510204 21.1967213 17.8095238 21.1967213 17.8095238 20.4590164 18.0680272 20.4590164"></polygon>
            </g>
        </g>
    </g>
</svg>